<?xml version="1.0" standalone="no"?>
<!DOCTYPE svg PUBLIC "-//W3C//DTD SVG 20010904//EN"
 "http://www.w3.org/TR/2001/REC-SVG-20010904/DTD/svg10.dtd">
<svg version="1.0" xmlns="http://www.w3.org/2000/svg"
 width="1268.000000pt" height="1280.000000pt" viewBox="0 0 1268.000000 1280.000000"
 preserveAspectRatio="xMidYMid meet">
<metadata>
Created by potrace 1.15, written by Peter Selinger 2001-2017
</metadata>
<g transform="translate(0.000000,1280.000000) scale(0.100000,-0.100000)"
fill="#fff" stroke="none">
<path d="M5960 12790 c-1020 -97 -1894 -615 -2458 -1457 -315 -470 -511 -1056
-544 -1633 l-3 -45 -100 -7 c-553 -41 -1134 -259 -1588 -595 -824 -611 -1294
-1572 -1264 -2588 9 -286 44 -517 119 -779 289 -1009 1084 -1817 2088 -2119
223 -67 435 -107 674 -127 183 -14 7047 -14 7223 1 548 46 1060 246 1502 586
47 37 160 141 252 232 245 246 382 438 535 746 128 260 213 534 261 845 22
145 25 584 5 730 -110 776 -497 1439 -1107 1895 -375 281 -800 455 -1295 532
-136 21 -589 24 -705 5 -38 -6 -71 -9 -73 -7 -2 2 4 66 14 142 22 168 25 552
6 718 -113 953 -595 1776 -1360 2324 -445 318 -945 513 -1503 587 -137 18
-547 26 -679 14z"/>
<path d="M3675 2829 c-83 -29 -160 -83 -205 -143 -21 -28 -299 -503 -618
-1056 -395 -684 -585 -1024 -597 -1064 -27 -94 -18 -223 23 -307 138 -287 504
-349 724 -122 34 36 194 303 619 1038 314 545 586 1019 603 1055 29 61 31 72
31 175 0 90 -4 120 -23 165 -45 111 -142 209 -252 252 -82 32 -226 35 -305 7z"/>
<path d="M6415 2833 c-76 -27 -136 -66 -186 -120 -30 -32 -233 -375 -632
-1066 -323 -559 -595 -1036 -603 -1060 -74 -205 28 -443 232 -544 64 -31 85
-36 166 -41 81 -4 102 -1 165 21 81 28 157 79 202 136 35 44 1161 1988 1198
2068 101 217 0 480 -224 586 -60 28 -80 32 -168 34 -77 3 -112 -1 -150 -14z"/>
<path d="M9140 2827 c-74 -25 -155 -80 -198 -135 -49 -63 -1194 -2053 -1215
-2112 -15 -44 -18 -75 -15 -155 3 -86 8 -109 34 -165 116 -243 405 -332 636
-197 58 34 125 107 172 187 457 778 1135 1969 1155 2025 20 59 23 83 18 155
-5 96 -23 150 -77 230 -106 160 -324 231 -510 167z"/>
</g>
</svg>
